<svg xmlns="http://www.w3.org/2000/svg" width="700" height="500" font-family="sans-serif">
<rect x="70" y="20" width="490" height="430" fill="#f5f5f5"/>
<line x1="70" y1="396" x2="560" y2="396" stroke="#ddd"/>
<line x1="70" y1="342" x2="560" y2="342" stroke="#ddd"/>
<line x1="70" y1="289" x2="560" y2="289" stroke="#ddd"/>
<line x1="70" y1="235" x2="560" y2="235" stroke="#ddd"/>
<line x1="70" y1="181" x2="560" y2="181" stroke="#ddd"/>
<line x1="70" y1="128" x2="560" y2="128" stroke="#ddd"/>
<line x1="70" y1="74" x2="560" y2="74" stroke="#ddd"/>
<line x1="70" y1="20" x2="560" y2="20" stroke="#ddd"/>
<line x1="70" y1="20" x2="70" y2="450" stroke="#ddd"/>
<line x1="145" y1="20" x2="145" y2="450" stroke="#ddd"/>
<line x1="221" y1="20" x2="221" y2="450" stroke="#ddd"/>
<line x1="296" y1="20" x2="296" y2="450" stroke="#ddd"/>
<line x1="372" y1="20" x2="372" y2="450" stroke="#ddd"/>
<line x1="447" y1="20" x2="447" y2="450" stroke="#ddd"/>
<line x1="522" y1="20" x2="522" y2="450" stroke="#ddd"/>
<text x="70" y="470" text-anchor="middle" font-size="11">170</text>
<text x="145" y="470" text-anchor="middle" font-size="11">180</text>
<text x="221" y="470" text-anchor="middle" font-size="11">190</text>
<text x="296" y="470" text-anchor="middle" font-size="11">200</text>
<text x="372" y="470" text-anchor="middle" font-size="11">210</text>
<text x="447" y="470" text-anchor="middle" font-size="11">220</text>
<text x="522" y="470" text-anchor="middle" font-size="11">230</text>
<text x="62" y="400" text-anchor="end" font-size="11">3,000</text>
<text x="62" y="346" text-anchor="end" font-size="11">3,500</text>
<text x="62" y="293" text-anchor="end" font-size="11">4,000</text>
<text x="62" y="239" text-anchor="end" font-size="11">4,500</text>
<text x="62" y="185" text-anchor="end" font-size="11">5,000</text>
<text x="62" y="132" text-anchor="end" font-size="11">5,500</text>
<text x="62" y="78" text-anchor="end" font-size="11">6,000</text>
<text x="62" y="24" text-anchor="end" font-size="11">6,500</text>
<text x="315.0" y="495" text-anchor="middle" font-size="13">Flipper Length (mm)</text>
<text transform="translate(15,235.0) rotate(-90)" text-anchor="middle" font-size="13">Body Mass (g)</text>
<circle cx="152.9" cy="315.6" r="6.6" fill="#E8862A" opacity="0.8"/>
<circle cx="190.6" cy="310.2" r="6.8" fill="#E8862A" opacity="0.8"/>
<circle cx="258.5" cy="369.4" r="7.1" fill="#E8862A" opacity="0.8"/>
<circle cx="243.4" cy="347.9" r="5.7" fill="#E8862A" opacity="0.8"/>
<circle cx="220.8" cy="326.4" r="6.7" fill="#E8862A" opacity="0.8"/>
<circle cx="152.9" cy="329.1" r="6.6" fill="#E8862A" opacity="0.8"/>
<circle cx="258.5" cy="216.2" r="6.7" fill="#E8862A" opacity="0.8"/>
<circle cx="243.4" cy="345.2" r="4.6" fill="#E8862A" opacity="0.8"/>
<circle cx="220.8" cy="261.9" r="7.8" fill="#E8862A" opacity="0.8"/>
<circle cx="190.6" cy="364.0" r="6.1" fill="#E8862A" opacity="0.8"/>
<circle cx="145.4" cy="321.0" r="6.1" fill="#E8862A" opacity="0.8"/>
<circle cx="160.5" cy="374.8" r="7.4" fill="#E8862A" opacity="0.8"/>
<circle cx="228.3" cy="310.2" r="6.4" fill="#E8862A" opacity="0.8"/>
<circle cx="281.1" cy="245.8" r="4.8" fill="#E8862A" opacity="0.8"/>
<circle cx="183.1" cy="321.0" r="5.6" fill="#E8862A" opacity="0.8"/>
<circle cx="258.5" cy="347.9" r="6.5" fill="#E8862A" opacity="0.8"/>
<circle cx="273.5" cy="235.0" r="8.0" fill="#E8862A" opacity="0.8"/>
<circle cx="175.5" cy="361.3" r="4.8" fill="#E8862A" opacity="0.8"/>
<circle cx="250.9" cy="267.2" r="9.4" fill="#E8862A" opacity="0.8"/>
<circle cx="100.2" cy="353.2" r="6.1" fill="#E8862A" opacity="0.8"/>
<circle cx="145.4" cy="331.8" r="6.1" fill="#E8862A" opacity="0.8"/>
<circle cx="213.2" cy="310.2" r="5.4" fill="#E8862A" opacity="0.8"/>
<circle cx="183.1" cy="294.1" r="6.3" fill="#E8862A" opacity="0.8"/>
<circle cx="145.4" cy="310.2" r="6.5" fill="#E8862A" opacity="0.8"/>
<circle cx="198.2" cy="310.2" r="5.1" fill="#E8862A" opacity="0.8"/>
<circle cx="168.0" cy="337.1" r="7.2" fill="#E8862A" opacity="0.8"/>
<circle cx="198.2" cy="374.8" r="7.2" fill="#E8862A" opacity="0.8"/>
<circle cx="85.1" cy="380.1" r="6.2" fill="#E8862A" opacity="0.8"/>
<circle cx="145.4" cy="294.1" r="7.2" fill="#E8862A" opacity="0.8"/>
<circle cx="130.3" cy="369.4" r="6.8" fill="#E8862A" opacity="0.8"/>
<circle cx="130.3" cy="299.5" r="5.9" fill="#E8862A" opacity="0.8"/>
<circle cx="205.7" cy="364.0" r="6.8" fill="#E8862A" opacity="0.8"/>
<circle cx="175.5" cy="299.5" r="7.4" fill="#E8862A" opacity="0.8"/>
<circle cx="258.5" cy="361.3" r="5.6" fill="#E8862A" opacity="0.8"/>
<circle cx="266.0" cy="272.6" r="6.7" fill="#E8862A" opacity="0.8"/>
<circle cx="220.8" cy="294.1" r="6.5" fill="#E8862A" opacity="0.8"/>
<circle cx="145.4" cy="337.1" r="7.9" fill="#E8862A" opacity="0.8"/>
<circle cx="152.9" cy="364.0" r="6.0" fill="#E8862A" opacity="0.8"/>
<circle cx="175.5" cy="218.9" r="6.9" fill="#E8862A" opacity="0.8"/>
<circle cx="160.5" cy="380.1" r="5.6" fill="#E8862A" opacity="0.8"/>
<circle cx="258.5" cy="299.5" r="7.3" fill="#E8862A" opacity="0.8"/>
<circle cx="190.6" cy="385.5" r="5.4" fill="#E8862A" opacity="0.8"/>
<circle cx="266.0" cy="245.8" r="8.6" fill="#E8862A" opacity="0.8"/>
<circle cx="183.1" cy="396.2" r="5.8" fill="#E8862A" opacity="0.8"/>
<circle cx="220.8" cy="224.2" r="6.8" fill="#E8862A" opacity="0.8"/>
<circle cx="160.5" cy="350.6" r="7.4" fill="#E8862A" opacity="0.8"/>
<circle cx="137.8" cy="398.9" r="6.0" fill="#E8862A" opacity="0.8"/>
<circle cx="220.8" cy="347.9" r="5.4" fill="#E8862A" opacity="0.8"/>
<circle cx="228.3" cy="272.6" r="7.9" fill="#E8862A" opacity="0.8"/>
<circle cx="190.6" cy="342.5" r="6.8" fill="#E8862A" opacity="0.8"/>
<circle cx="205.7" cy="256.5" r="7.0" fill="#E8862A" opacity="0.8"/>
<circle cx="220.8" cy="347.9" r="5.0" fill="#E8862A" opacity="0.8"/>
<circle cx="296.2" cy="283.4" r="7.8" fill="#E8862A" opacity="0.8"/>
<circle cx="198.2" cy="407.0" r="4.8" fill="#E8862A" opacity="0.8"/>
<circle cx="228.3" cy="321.0" r="7.6" fill="#E8862A" opacity="0.8"/>
<circle cx="190.6" cy="337.1" r="6.6" fill="#E8862A" opacity="0.8"/>
<circle cx="243.4" cy="310.2" r="7.2" fill="#E8862A" opacity="0.8"/>
<circle cx="152.9" cy="412.4" r="5.6" fill="#E8862A" opacity="0.8"/>
<circle cx="250.9" cy="315.6" r="6.0" fill="#E8862A" opacity="0.8"/>
<circle cx="183.1" cy="380.1" r="5.3" fill="#E8862A" opacity="0.8"/>
<circle cx="258.5" cy="245.8" r="7.5" fill="#E8862A" opacity="0.8"/>
<circle cx="183.1" cy="331.8" r="6.0" fill="#E8862A" opacity="0.8"/>
<circle cx="235.8" cy="283.4" r="7.4" fill="#E8862A" opacity="0.8"/>
<circle cx="175.5" cy="412.4" r="5.6" fill="#E8862A" opacity="0.8"/>
<circle cx="235.8" cy="294.1" r="7.6" fill="#E8862A" opacity="0.8"/>
<circle cx="258.5" cy="358.6" r="5.2" fill="#E8862A" opacity="0.8"/>
<circle cx="205.7" cy="278.0" r="7.4" fill="#E8862A" opacity="0.8"/>
<circle cx="220.8" cy="390.9" r="5.4" fill="#E8862A" opacity="0.8"/>
<circle cx="281.1" cy="240.4" r="7.7" fill="#E8862A" opacity="0.8"/>
<circle cx="220.8" cy="331.8" r="4.4" fill="#E8862A" opacity="0.8"/>
<circle cx="220.8" cy="299.5" r="6.9" fill="#E8862A" opacity="0.8"/>
<circle cx="266.0" cy="337.1" r="6.8" fill="#E8862A" opacity="0.8"/>
<circle cx="273.5" cy="272.6" r="9.3" fill="#E8862A" opacity="0.8"/>
<circle cx="220.8" cy="321.0" r="5.2" fill="#E8862A" opacity="0.8"/>
<circle cx="258.5" cy="261.9" r="8.1" fill="#E8862A" opacity="0.8"/>
<circle cx="228.3" cy="321.0" r="7.4" fill="#E8862A" opacity="0.8"/>
<circle cx="175.5" cy="299.5" r="5.9" fill="#E8862A" opacity="0.8"/>
<circle cx="198.2" cy="337.1" r="5.5" fill="#E8862A" opacity="0.8"/>
<circle cx="258.5" cy="288.8" r="7.8" fill="#E8862A" opacity="0.8"/>
<circle cx="213.2" cy="374.8" r="4.8" fill="#E8862A" opacity="0.8"/>
<circle cx="266.0" cy="213.5" r="8.2" fill="#E8862A" opacity="0.8"/>
<circle cx="198.2" cy="310.2" r="5.7" fill="#E8862A" opacity="0.8"/>
<circle cx="243.4" cy="267.2" r="5.0" fill="#E8862A" opacity="0.8"/>
<circle cx="228.3" cy="358.6" r="5.9" fill="#E8862A" opacity="0.8"/>
<circle cx="250.9" cy="337.1" r="7.5" fill="#E8862A" opacity="0.8"/>
<circle cx="220.8" cy="310.2" r="5.5" fill="#E8862A" opacity="0.8"/>
<circle cx="213.2" cy="342.5" r="5.8" fill="#E8862A" opacity="0.8"/>
<circle cx="213.2" cy="294.1" r="6.3" fill="#E8862A" opacity="0.8"/>
<circle cx="220.8" cy="331.8" r="6.6" fill="#E8862A" opacity="0.8"/>
<circle cx="311.2" cy="337.1" r="5.3" fill="#E8862A" opacity="0.8"/>
<circle cx="333.8" cy="256.5" r="7.4" fill="#E8862A" opacity="0.8"/>
<circle cx="183.1" cy="353.2" r="4.6" fill="#E8862A" opacity="0.8"/>
<circle cx="190.6" cy="240.4" r="6.8" fill="#E8862A" opacity="0.8"/>
<circle cx="198.2" cy="364.0" r="5.5" fill="#E8862A" opacity="0.8"/>
<circle cx="356.5" cy="256.5" r="7.3" fill="#E8862A" opacity="0.8"/>
<circle cx="220.8" cy="321.0" r="6.2" fill="#E8862A" opacity="0.8"/>
<circle cx="266.0" cy="251.1" r="7.1" fill="#E8862A" opacity="0.8"/>
<circle cx="130.3" cy="407.0" r="4.2" fill="#E8862A" opacity="0.8"/>
<circle cx="235.8" cy="278.0" r="8.3" fill="#E8862A" opacity="0.8"/>
<circle cx="235.8" cy="318.3" r="5.0" fill="#E8862A" opacity="0.8"/>
<circle cx="318.8" cy="210.8" r="7.4" fill="#E8862A" opacity="0.8"/>
<circle cx="168.0" cy="388.2" r="6.1" fill="#E8862A" opacity="0.8"/>
<circle cx="220.8" cy="261.9" r="6.1" fill="#E8862A" opacity="0.8"/>
<circle cx="243.4" cy="404.3" r="6.2" fill="#E8862A" opacity="0.8"/>
<circle cx="175.5" cy="337.1" r="6.9" fill="#E8862A" opacity="0.8"/>
<circle cx="288.6" cy="315.6" r="6.4" fill="#E8862A" opacity="0.8"/>
<circle cx="220.8" cy="299.5" r="6.3" fill="#E8862A" opacity="0.8"/>
<circle cx="152.9" cy="377.4" r="6.2" fill="#E8862A" opacity="0.8"/>
<circle cx="273.5" cy="205.4" r="8.3" fill="#E8862A" opacity="0.8"/>
<circle cx="281.1" cy="307.6" r="6.2" fill="#E8862A" opacity="0.8"/>
<circle cx="228.3" cy="224.2" r="9.2" fill="#E8862A" opacity="0.8"/>
<circle cx="243.4" cy="374.8" r="6.9" fill="#E8862A" opacity="0.8"/>
<circle cx="273.5" cy="259.2" r="7.9" fill="#E8862A" opacity="0.8"/>
<circle cx="228.3" cy="299.5" r="6.8" fill="#E8862A" opacity="0.8"/>
<circle cx="266.0" cy="280.7" r="8.1" fill="#E8862A" opacity="0.8"/>
<circle cx="205.7" cy="407.0" r="6.4" fill="#E8862A" opacity="0.8"/>
<circle cx="288.6" cy="312.9" r="5.9" fill="#E8862A" opacity="0.8"/>
<circle cx="213.2" cy="358.6" r="5.3" fill="#E8862A" opacity="0.8"/>
<circle cx="213.2" cy="361.3" r="7.4" fill="#E8862A" opacity="0.8"/>
<circle cx="198.2" cy="380.1" r="5.5" fill="#E8862A" opacity="0.8"/>
<circle cx="281.1" cy="342.5" r="6.1" fill="#E8862A" opacity="0.8"/>
<circle cx="115.2" cy="347.9" r="7.1" fill="#E8862A" opacity="0.8"/>
<circle cx="311.2" cy="302.2" r="7.6" fill="#E8862A" opacity="0.8"/>
<circle cx="190.6" cy="390.9" r="5.1" fill="#E8862A" opacity="0.8"/>
<circle cx="288.6" cy="288.8" r="7.2" fill="#E8862A" opacity="0.8"/>
<circle cx="228.3" cy="366.7" r="6.5" fill="#E8862A" opacity="0.8"/>
<circle cx="258.5" cy="256.5" r="7.6" fill="#E8862A" opacity="0.8"/>
<circle cx="228.3" cy="390.9" r="6.6" fill="#E8862A" opacity="0.8"/>
<circle cx="371.5" cy="288.8" r="8.6" fill="#E8862A" opacity="0.8"/>
<circle cx="220.8" cy="361.3" r="6.4" fill="#E8862A" opacity="0.8"/>
<circle cx="273.5" cy="342.5" r="8.2" fill="#E8862A" opacity="0.8"/>
<circle cx="243.4" cy="342.5" r="5.7" fill="#E8862A" opacity="0.8"/>
<circle cx="288.6" cy="237.7" r="6.0" fill="#E8862A" opacity="0.8"/>
<circle cx="198.2" cy="350.6" r="6.2" fill="#E8862A" opacity="0.8"/>
<circle cx="220.8" cy="299.5" r="7.4" fill="#E8862A" opacity="0.8"/>
<circle cx="228.3" cy="377.4" r="5.2" fill="#E8862A" opacity="0.8"/>
<circle cx="296.2" cy="291.4" r="7.1" fill="#E8862A" opacity="0.8"/>
<circle cx="183.1" cy="353.2" r="5.8" fill="#E8862A" opacity="0.8"/>
<circle cx="243.4" cy="261.9" r="6.9" fill="#E8862A" opacity="0.8"/>
<circle cx="243.4" cy="353.2" r="7.1" fill="#E8862A" opacity="0.8"/>
<circle cx="198.2" cy="345.2" r="7.2" fill="#E8862A" opacity="0.8"/>
<circle cx="205.7" cy="390.9" r="3.8" fill="#E8862A" opacity="0.8"/>
<circle cx="220.8" cy="318.3" r="7.3" fill="#E8862A" opacity="0.8"/>
<circle cx="235.8" cy="396.2" r="5.9" fill="#E8862A" opacity="0.8"/>
<circle cx="183.1" cy="326.4" r="6.6" fill="#E8862A" opacity="0.8"/>
<circle cx="220.8" cy="261.9" r="6.7" fill="#E8862A" opacity="0.8"/>
<circle cx="175.5" cy="345.2" r="5.6" fill="#E8862A" opacity="0.8"/>
<circle cx="258.5" cy="347.9" r="5.4" fill="#E8862A" opacity="0.8"/>
<circle cx="243.4" cy="315.6" r="6.1" fill="#E8862A" opacity="0.8"/>
<circle cx="198.2" cy="321.0" r="5.4" fill="#E8862A" opacity="0.8"/>
<circle cx="303.7" cy="288.8" r="7.6" fill="#E8862A" opacity="0.8"/>
<circle cx="379.1" cy="235.0" r="9.4" fill="#2E9E8F" opacity="0.8"/>
<circle cx="522.3" cy="106.0" r="11.0" fill="#2E9E8F" opacity="0.8"/>
<circle cx="371.5" cy="240.4" r="10.5" fill="#2E9E8F" opacity="0.8"/>
<circle cx="431.8" cy="106.0" r="11.0" fill="#2E9E8F" opacity="0.8"/>
<circle cx="409.2" cy="138.2" r="10.0" fill="#2E9E8F" opacity="0.8"/>
<circle cx="371.5" cy="229.6" r="9.6" fill="#2E9E8F" opacity="0.8"/>
<circle cx="379.1" cy="202.8" r="9.2" fill="#2E9E8F" opacity="0.8"/>
<circle cx="439.4" cy="159.8" r="9.7" fill="#2E9E8F" opacity="0.8"/>
<circle cx="364.0" cy="245.8" r="8.3" fill="#2E9E8F" opacity="0.8"/>
<circle cx="409.2" cy="165.1" r="9.7" fill="#2E9E8F" opacity="0.8"/>
<circle cx="401.7" cy="218.9" r="7.4" fill="#2E9E8F" opacity="0.8"/>
<circle cx="416.8" cy="122.1" r="10.6" fill="#2E9E8F" opacity="0.8"/>
<circle cx="401.7" cy="218.9" r="9.2" fill="#2E9E8F" opacity="0.8"/>
<circle cx="394.2" cy="89.9" r="10.4" fill="#2E9E8F" opacity="0.8"/>
<circle cx="371.5" cy="267.2" r="9.3" fill="#2E9E8F" opacity="0.8"/>
<circle cx="424.3" cy="89.9" r="10.7" fill="#2E9E8F" opacity="0.8"/>
<circle cx="371.5" cy="272.6" r="7.8" fill="#2E9E8F" opacity="0.8"/>
<circle cx="454.5" cy="41.5" r="10.7" fill="#2E9E8F" opacity="0.8"/>
<circle cx="364.0" cy="202.8" r="9.5" fill="#2E9E8F" opacity="0.8"/>
<circle cx="462.0" cy="143.6" r="10.5" fill="#2E9E8F" opacity="0.8"/>
<circle cx="431.8" cy="106.0" r="11.1" fill="#2E9E8F" opacity="0.8"/>
<circle cx="409.2" cy="181.2" r="9.0" fill="#2E9E8F" opacity="0.8"/>
<circle cx="394.2" cy="245.8" r="9.6" fill="#2E9E8F" opacity="0.8"/>
<circle cx="409.2" cy="175.9" r="9.5" fill="#2E9E8F" opacity="0.8"/>
<circle cx="409.2" cy="181.2" r="8.2" fill="#2E9E8F" opacity="0.8"/>
<circle cx="409.2" cy="170.5" r="9.4" fill="#2E9E8F" opacity="0.8"/>
<circle cx="416.8" cy="278.0" r="8.8" fill="#2E9E8F" opacity="0.8"/>
<circle cx="409.2" cy="111.4" r="10.1" fill="#2E9E8F" opacity="0.8"/>
<circle cx="371.5" cy="224.2" r="10.3" fill="#2E9E8F" opacity="0.8"/>
<circle cx="446.9" cy="122.1" r="11.0" fill="#2E9E8F" opacity="0.8"/>
<circle cx="462.0" cy="154.4" r="9.9" fill="#2E9E8F" opacity="0.8"/>
<circle cx="364.0" cy="213.5" r="8.1" fill="#2E9E8F" opacity="0.8"/>
<circle cx="348.9" cy="175.9" r="9.0" fill="#2E9E8F" opacity="0.8"/>
<circle cx="522.3" cy="68.4" r="14.8" fill="#2E9E8F" opacity="0.8"/>
<circle cx="446.9" cy="165.1" r="10.6" fill="#2E9E8F" opacity="0.8"/>
<circle cx="446.9" cy="138.2" r="10.4" fill="#2E9E8F" opacity="0.8"/>
<circle cx="394.2" cy="186.6" r="8.0" fill="#2E9E8F" opacity="0.8"/>
<circle cx="439.4" cy="154.4" r="8.8" fill="#2E9E8F" opacity="0.8"/>
<circle cx="356.5" cy="251.1" r="8.6" fill="#2E9E8F" opacity="0.8"/>
<circle cx="356.5" cy="143.6" r="10.5" fill="#2E9E8F" opacity="0.8"/>
<circle cx="356.5" cy="294.1" r="8.1" fill="#2E9E8F" opacity="0.8"/>
<circle cx="484.6" cy="106.0" r="10.8" fill="#2E9E8F" opacity="0.8"/>
<circle cx="371.5" cy="256.5" r="9.1" fill="#2E9E8F" opacity="0.8"/>
<circle cx="416.8" cy="208.1" r="10.8" fill="#2E9E8F" opacity="0.8"/>
<circle cx="462.0" cy="122.1" r="11.2" fill="#2E9E8F" opacity="0.8"/>
<circle cx="424.3" cy="192.0" r="8.4" fill="#2E9E8F" opacity="0.8"/>
<circle cx="371.5" cy="267.2" r="9.2" fill="#2E9E8F" opacity="0.8"/>
<circle cx="484.6" cy="138.2" r="11.2" fill="#2E9E8F" opacity="0.8"/>
<circle cx="394.2" cy="170.5" r="9.0" fill="#2E9E8F" opacity="0.8"/>
<circle cx="409.2" cy="149.0" r="9.1" fill="#2E9E8F" opacity="0.8"/>
<circle cx="371.5" cy="197.4" r="9.6" fill="#2E9E8F" opacity="0.8"/>
<circle cx="446.9" cy="149.0" r="10.4" fill="#2E9E8F" opacity="0.8"/>
<circle cx="371.5" cy="245.8" r="9.0" fill="#2E9E8F" opacity="0.8"/>
<circle cx="484.6" cy="181.2" r="11.0" fill="#2E9E8F" opacity="0.8"/>
<circle cx="424.3" cy="192.0" r="9.6" fill="#2E9E8F" opacity="0.8"/>
<circle cx="446.9" cy="175.9" r="9.0" fill="#2E9E8F" opacity="0.8"/>
<circle cx="356.5" cy="256.5" r="8.5" fill="#2E9E8F" opacity="0.8"/>
<circle cx="446.9" cy="181.2" r="9.2" fill="#2E9E8F" opacity="0.8"/>
<circle cx="356.5" cy="240.4" r="8.3" fill="#2E9E8F" opacity="0.8"/>
<circle cx="477.1" cy="122.1" r="11.2" fill="#2E9E8F" opacity="0.8"/>
<circle cx="356.5" cy="267.2" r="9.1" fill="#2E9E8F" opacity="0.8"/>
<circle cx="454.5" cy="149.0" r="9.5" fill="#2E9E8F" opacity="0.8"/>
<circle cx="401.7" cy="245.8" r="9.3" fill="#2E9E8F" opacity="0.8"/>
<circle cx="529.8" cy="111.4" r="12.7" fill="#2E9E8F" opacity="0.8"/>
<circle cx="439.4" cy="213.5" r="9.3" fill="#2E9E8F" opacity="0.8"/>
<circle cx="522.3" cy="106.0" r="10.9" fill="#2E9E8F" opacity="0.8"/>
<circle cx="401.7" cy="218.9" r="9.5" fill="#2E9E8F" opacity="0.8"/>
<circle cx="514.8" cy="95.2" r="10.8" fill="#2E9E8F" opacity="0.8"/>
<circle cx="446.9" cy="213.5" r="8.4" fill="#2E9E8F" opacity="0.8"/>
<circle cx="469.5" cy="122.1" r="11.3" fill="#2E9E8F" opacity="0.8"/>
<circle cx="416.8" cy="208.1" r="10.1" fill="#2E9E8F" opacity="0.8"/>
<circle cx="454.5" cy="181.2" r="9.6" fill="#2E9E8F" opacity="0.8"/>
<circle cx="454.5" cy="170.5" r="10.3" fill="#2E9E8F" opacity="0.8"/>
<circle cx="424.3" cy="159.8" r="9.6" fill="#2E9E8F" opacity="0.8"/>
<circle cx="416.8" cy="213.5" r="9.6" fill="#2E9E8F" opacity="0.8"/>
<circle cx="522.3" cy="95.2" r="10.4" fill="#2E9E8F" opacity="0.8"/>
<circle cx="364.0" cy="224.2" r="10.0" fill="#2E9E8F" opacity="0.8"/>
<circle cx="446.9" cy="73.8" r="11.4" fill="#2E9E8F" opacity="0.8"/>
<circle cx="409.2" cy="208.1" r="9.1" fill="#2E9E8F" opacity="0.8"/>
<circle cx="469.5" cy="79.1" r="9.1" fill="#2E9E8F" opacity="0.8"/>
<circle cx="386.6" cy="221.6" r="10.6" fill="#2E9E8F" opacity="0.8"/>
<circle cx="454.5" cy="132.9" r="12.0" fill="#2E9E8F" opacity="0.8"/>
<circle cx="386.6" cy="210.8" r="10.0" fill="#2E9E8F" opacity="0.8"/>
<circle cx="477.1" cy="143.6" r="11.0" fill="#2E9E8F" opacity="0.8"/>
<circle cx="386.6" cy="208.1" r="9.0" fill="#2E9E8F" opacity="0.8"/>
<circle cx="507.2" cy="116.8" r="11.3" fill="#2E9E8F" opacity="0.8"/>
<circle cx="431.8" cy="224.2" r="8.4" fill="#2E9E8F" opacity="0.8"/>
<circle cx="431.8" cy="149.0" r="11.5" fill="#2E9E8F" opacity="0.8"/>
<circle cx="386.6" cy="194.7" r="10.0" fill="#2E9E8F" opacity="0.8"/>
<circle cx="522.3" cy="122.1" r="11.8" fill="#2E9E8F" opacity="0.8"/>
<circle cx="431.8" cy="186.6" r="10.0" fill="#2E9E8F" opacity="0.8"/>
<circle cx="507.2" cy="138.2" r="11.9" fill="#2E9E8F" opacity="0.8"/>
<circle cx="386.6" cy="208.1" r="9.2" fill="#2E9E8F" opacity="0.8"/>
<circle cx="477.1" cy="111.4" r="10.8" fill="#2E9E8F" opacity="0.8"/>
<circle cx="401.7" cy="197.4" r="8.8" fill="#2E9E8F" opacity="0.8"/>
<circle cx="492.2" cy="159.8" r="11.3" fill="#2E9E8F" opacity="0.8"/>
<circle cx="416.8" cy="189.3" r="10.8" fill="#2E9E8F" opacity="0.8"/>
<circle cx="462.0" cy="194.7" r="9.8" fill="#2E9E8F" opacity="0.8"/>
<circle cx="318.8" cy="221.6" r="10.4" fill="#2E9E8F" opacity="0.8"/>
<circle cx="484.6" cy="154.4" r="11.4" fill="#2E9E8F" opacity="0.8"/>
<circle cx="439.4" cy="197.4" r="10.4" fill="#2E9E8F" opacity="0.8"/>
<circle cx="507.2" cy="116.8" r="13.4" fill="#2E9E8F" opacity="0.8"/>
<circle cx="409.2" cy="183.9" r="9.9" fill="#2E9E8F" opacity="0.8"/>
<circle cx="507.2" cy="127.5" r="10.6" fill="#2E9E8F" opacity="0.8"/>
<circle cx="416.8" cy="210.8" r="9.9" fill="#2E9E8F" opacity="0.8"/>
<circle cx="409.2" cy="127.5" r="9.7" fill="#2E9E8F" opacity="0.8"/>
<circle cx="371.5" cy="213.5" r="7.7" fill="#2E9E8F" opacity="0.8"/>
<circle cx="439.4" cy="127.5" r="12.4" fill="#2E9E8F" opacity="0.8"/>
<circle cx="356.5" cy="226.9" r="8.3" fill="#2E9E8F" opacity="0.8"/>
<circle cx="364.0" cy="127.5" r="10.2" fill="#2E9E8F" opacity="0.8"/>
<circle cx="416.8" cy="181.2" r="11.2" fill="#2E9E8F" opacity="0.8"/>
<circle cx="514.8" cy="79.1" r="10.9" fill="#2E9E8F" opacity="0.8"/>
<circle cx="394.2" cy="218.9" r="8.4" fill="#2E9E8F" opacity="0.8"/>
<circle cx="522.3" cy="127.5" r="11.6" fill="#2E9E8F" opacity="0.8"/>
<circle cx="424.3" cy="248.4" r="9.5" fill="#2E9E8F" opacity="0.8"/>
<circle cx="522.3" cy="89.9" r="13.0" fill="#2E9E8F" opacity="0.8"/>
<circle cx="424.3" cy="194.7" r="8.8" fill="#2E9E8F" opacity="0.8"/>
<circle cx="462.0" cy="73.8" r="10.5" fill="#2E9E8F" opacity="0.8"/>
<circle cx="401.7" cy="189.3" r="9.9" fill="#2E9E8F" opacity="0.8"/>
<circle cx="409.2" cy="197.4" r="9.7" fill="#2E9E8F" opacity="0.8"/>
<circle cx="462.0" cy="100.6" r="11.2" fill="#2E9E8F" opacity="0.8"/>
<circle cx="386.6" cy="159.8" r="9.1" fill="#2E9E8F" opacity="0.8"/>
<circle cx="394.2" cy="138.2" r="11.0" fill="#2E9E8F" opacity="0.8"/>
<circle cx="235.8" cy="342.5" r="9.6" fill="#9B59B6" opacity="0.8"/>
<circle cx="266.0" cy="299.5" r="11.0" fill="#9B59B6" opacity="0.8"/>
<circle cx="243.4" cy="326.4" r="11.5" fill="#9B59B6" opacity="0.8"/>
<circle cx="205.7" cy="339.8" r="9.2" fill="#9B59B6" opacity="0.8"/>
<circle cx="273.5" cy="318.3" r="12.1" fill="#9B59B6" opacity="0.8"/>
<circle cx="281.1" cy="294.1" r="9.1" fill="#9B59B6" opacity="0.8"/>
<circle cx="130.3" cy="369.4" r="9.4" fill="#9B59B6" opacity="0.8"/>
<circle cx="273.5" cy="315.6" r="11.5" fill="#9B59B6" opacity="0.8"/>
<circle cx="258.5" cy="272.6" r="9.4" fill="#9B59B6" opacity="0.8"/>
<circle cx="281.1" cy="321.0" r="11.5" fill="#9B59B6" opacity="0.8"/>
<circle cx="243.4" cy="310.2" r="9.6" fill="#9B59B6" opacity="0.8"/>
<circle cx="250.9" cy="312.9" r="11.7" fill="#9B59B6" opacity="0.8"/>
<circle cx="183.1" cy="321.0" r="9.8" fill="#9B59B6" opacity="0.8"/>
<circle cx="303.7" cy="283.4" r="11.8" fill="#9B59B6" opacity="0.8"/>
<circle cx="220.8" cy="334.4" r="9.4" fill="#9B59B6" opacity="0.8"/>
<circle cx="303.7" cy="283.4" r="11.2" fill="#9B59B6" opacity="0.8"/>
<circle cx="273.5" cy="364.0" r="11.1" fill="#9B59B6" opacity="0.8"/>
<circle cx="152.9" cy="321.0" r="14.2" fill="#9B59B6" opacity="0.8"/>
<circle cx="220.8" cy="347.9" r="9.6" fill="#9B59B6" opacity="0.8"/>
<circle cx="258.5" cy="245.8" r="10.7" fill="#9B59B6" opacity="0.8"/>
<circle cx="152.9" cy="331.8" r="8.0" fill="#9B59B6" opacity="0.8"/>
<circle cx="228.3" cy="353.2" r="10.4" fill="#9B59B6" opacity="0.8"/>
<circle cx="198.2" cy="407.0" r="8.3" fill="#9B59B6" opacity="0.8"/>
<circle cx="243.4" cy="310.2" r="11.2" fill="#9B59B6" opacity="0.8"/>
<circle cx="258.5" cy="364.0" r="9.7" fill="#9B59B6" opacity="0.8"/>
<circle cx="273.5" cy="272.6" r="11.8" fill="#9B59B6" opacity="0.8"/>
<circle cx="296.2" cy="353.2" r="11.2" fill="#9B59B6" opacity="0.8"/>
<circle cx="296.2" cy="310.2" r="10.8" fill="#9B59B6" opacity="0.8"/>
<circle cx="228.3" cy="321.0" r="9.6" fill="#9B59B6" opacity="0.8"/>
<circle cx="333.8" cy="229.6" r="12.1" fill="#9B59B6" opacity="0.8"/>
<circle cx="198.2" cy="374.8" r="7.4" fill="#9B59B6" opacity="0.8"/>
<circle cx="303.7" cy="256.5" r="12.7" fill="#9B59B6" opacity="0.8"/>
<circle cx="198.2" cy="358.6" r="8.0" fill="#9B59B6" opacity="0.8"/>
<circle cx="318.8" cy="278.0" r="11.4" fill="#9B59B6" opacity="0.8"/>
<circle cx="258.5" cy="331.8" r="10.9" fill="#9B59B6" opacity="0.8"/>
<circle cx="288.6" cy="299.5" r="10.0" fill="#9B59B6" opacity="0.8"/>
<circle cx="258.5" cy="304.9" r="10.0" fill="#9B59B6" opacity="0.8"/>
<circle cx="371.5" cy="202.8" r="11.8" fill="#9B59B6" opacity="0.8"/>
<circle cx="235.8" cy="428.5" r="9.8" fill="#9B59B6" opacity="0.8"/>
<circle cx="333.8" cy="235.0" r="12.4" fill="#9B59B6" opacity="0.8"/>
<circle cx="371.5" cy="294.1" r="10.6" fill="#9B59B6" opacity="0.8"/>
<circle cx="198.2" cy="326.4" r="9.5" fill="#9B59B6" opacity="0.8"/>
<circle cx="266.0" cy="337.1" r="11.4" fill="#9B59B6" opacity="0.8"/>
<circle cx="266.0" cy="342.5" r="9.2" fill="#9B59B6" opacity="0.8"/>
<circle cx="266.0" cy="323.7" r="11.4" fill="#9B59B6" opacity="0.8"/>
<circle cx="303.7" cy="240.4" r="11.3" fill="#9B59B6" opacity="0.8"/>
<circle cx="220.8" cy="353.2" r="11.0" fill="#9B59B6" opacity="0.8"/>
<circle cx="386.6" cy="256.5" r="10.6" fill="#9B59B6" opacity="0.8"/>
<circle cx="198.2" cy="369.4" r="11.6" fill="#9B59B6" opacity="0.8"/>
<circle cx="281.1" cy="323.7" r="10.9" fill="#9B59B6" opacity="0.8"/>
<circle cx="288.6" cy="361.3" r="10.2" fill="#9B59B6" opacity="0.8"/>
<circle cx="303.7" cy="294.1" r="11.6" fill="#9B59B6" opacity="0.8"/>
<circle cx="243.4" cy="331.8" r="9.3" fill="#9B59B6" opacity="0.8"/>
<circle cx="318.8" cy="283.4" r="11.3" fill="#9B59B6" opacity="0.8"/>
<circle cx="198.2" cy="358.6" r="8.0" fill="#9B59B6" opacity="0.8"/>
<circle cx="273.5" cy="347.9" r="11.9" fill="#9B59B6" opacity="0.8"/>
<circle cx="228.3" cy="369.4" r="9.1" fill="#9B59B6" opacity="0.8"/>
<circle cx="318.8" cy="283.4" r="10.7" fill="#9B59B6" opacity="0.8"/>
<circle cx="311.2" cy="310.2" r="11.1" fill="#9B59B6" opacity="0.8"/>
<circle cx="250.9" cy="339.8" r="9.2" fill="#9B59B6" opacity="0.8"/>
<circle cx="341.4" cy="294.1" r="11.8" fill="#9B59B6" opacity="0.8"/>
<circle cx="213.2" cy="326.4" r="9.7" fill="#9B59B6" opacity="0.8"/>
<circle cx="258.5" cy="326.4" r="9.3" fill="#9B59B6" opacity="0.8"/>
<circle cx="348.9" cy="288.8" r="13.3" fill="#9B59B6" opacity="0.8"/>
<circle cx="311.2" cy="353.2" r="8.4" fill="#9B59B6" opacity="0.8"/>
<circle cx="243.4" cy="312.9" r="10.8" fill="#9B59B6" opacity="0.8"/>
<circle cx="371.5" cy="278.0" r="11.3" fill="#9B59B6" opacity="0.8"/>
<circle cx="281.1" cy="312.9" r="11.1" fill="#9B59B6" opacity="0.8"/>
<circle cx="585" cy="40" r="7" fill="#E8862A" opacity="0.8"/>
<text x="598" y="44" font-size="12">Adelie</text>
<circle cx="585" cy="65" r="7" fill="#9B59B6" opacity="0.8"/>
<text x="598" y="69" font-size="12">Chinstrap</text>
<circle cx="585" cy="90" r="7" fill="#2E9E8F" opacity="0.8"/>
<text x="598" y="94" font-size="12">Gentoo</text>
</svg>